HIERARCHY
ROOT Hips
{
	OFFSET 0.000000 0.000000 0.000000
	CHANNELS 6 Xposition Yposition Zposition Xrotation Yrotation Zrotation
	JOINT Thigh.L
	{
		OFFSET 0.054235 0.030853 -0.091989
		CHANNELS 3 Xrotation Yrotation Zrotation
		JOINT Shin.L
		{
			OFFSET 0.053145 0.016352 -0.411631
			CHANNELS 3 Xrotation Yrotation Zrotation
			JOINT Foot.L
			{
				OFFSET -0.041352 0.033356 -0.431601
				CHANNELS 3 Xrotation Yrotation Zrotation
				JOINT Toe.L
				{
					OFFSET 0.044576 -0.119074 -0.063716
					CHANNELS 3 Xrotation Yrotation Zrotation
					End Site
					{
						OFFSET 0.000000 0.050000 0.000000
					}
				}
			}
		}
	}
	JOINT Thigh.R
	{
		OFFSET -0.059521 0.028250 -0.102293
		CHANNELS 3 Xrotation Yrotation Zrotation
		JOINT Shin.R
		{
			OFFSET -0.042515 0.021700 -0.395397
			CHANNELS 3 Xrotation Yrotation Zrotation
			JOINT Foot.R
			{
				OFFSET 0.015514 0.021883 -0.440525
				CHANNELS 3 Xrotation Yrotation Zrotation
				JOINT Toe.R
				{
					OFFSET -0.036940 -0.119828 -0.063707
					CHANNELS 3 Xrotation Yrotation Zrotation
					End Site
					{
						OFFSET 0.000000 0.050000 0.000000
					}
				}
			}
		}
	}
	JOINT Spine
	{
		OFFSET -0.002003 0.019155 0.109189
		CHANNELS 3 Xrotation Yrotation Zrotation
		JOINT Spine.2
		{
			OFFSET 0.006575 0.002733 0.134717
			CHANNELS 3 Xrotation Yrotation Zrotation
			JOINT Chest
			{
				OFFSET -0.010344 -0.022755 0.049324
				CHANNELS 3 Xrotation Yrotation Zrotation
				JOINT Neck
				{
					OFFSET -0.009292 0.028669 0.163858
					CHANNELS 3 Xrotation Yrotation Zrotation
					JOINT Head
					{
						OFFSET 0.022050 -0.023125 0.167455
						CHANNELS 3 Xrotation Yrotation Zrotation
						End Site
						{
							OFFSET 0.000000 0.050000 0.000000
						}
					}
				}
				JOINT Clavicle.L
				{
					OFFSET 0.043141 0.008255 0.083722
					CHANNELS 3 Xrotation Yrotation Zrotation
					JOINT UpperArm.L
					{
						OFFSET 0.105866 0.014770 0.061724
						CHANNELS 3 Xrotation Yrotation Zrotation
						JOINT ForeArm.L
						{
							OFFSET 0.264278 0.034944 -0.075541
							CHANNELS 3 Xrotation Yrotation Zrotation
							JOINT Hand.L
							{
								OFFSET 0.262962 0.006606 0.021009
								CHANNELS 3 Xrotation Yrotation Zrotation
								JOINT Thumb1.L
								{
									OFFSET 0.154581 0.003004 0.009554
									CHANNELS 3 Xrotation Yrotation Zrotation
									JOINT Thumb2.L
									{
										OFFSET 0.029895 0.000751 0.002388
										CHANNELS 3 Xrotation Yrotation Zrotation
										End Site
										{
											OFFSET 0.024913 0.000626 0.001990
										}
									}
								}
								JOINT Index1.L
								{
									OFFSET 0.137581 0.003004 0.009554
									CHANNELS 3 Xrotation Yrotation Zrotation
									JOINT Index2.L
									{
										OFFSET 0.029895 0.000751 0.002388
										CHANNELS 3 Xrotation Yrotation Zrotation
										JOINT Index3.L
										{
											OFFSET 0.021923 0.000551 0.001752
											CHANNELS 3 Xrotation Yrotation Zrotation
											End Site
											{
												OFFSET 0.017937 0.000451 0.001433
											}
										}
									}
								}
								JOINT Middle1.L
								{
									OFFSET 0.119581 0.003004 0.009554
									CHANNELS 3 Xrotation Yrotation Zrotation
									JOINT Middle2.L
									{
										OFFSET 0.030892 0.000776 0.002468
										CHANNELS 3 Xrotation Yrotation Zrotation
										JOINT Middle3.L
										{
											OFFSET 0.021923 0.000551 0.001752
											CHANNELS 3 Xrotation Yrotation Zrotation
											End Site
											{
												OFFSET 0.017937 0.000451 0.001433
											}
										}
									}
								}
								JOINT Ring1.L
								{
									OFFSET 0.101581 0.003004 0.009554
									CHANNELS 3 Xrotation Yrotation Zrotation
									JOINT Ring2.L
									{
										OFFSET 0.028899 0.000726 0.002309
										CHANNELS 3 Xrotation Yrotation Zrotation
										JOINT Ring3.L
										{
											OFFSET 0.019930 0.000501 0.001592
											CHANNELS 3 Xrotation Yrotation Zrotation
											End Site
											{
												OFFSET 0.016941 0.000426 0.001353
											}
										}
									}
								}
								JOINT Pinky1.L
								{
									OFFSET 0.085581 0.003004 0.009554
									CHANNELS 3 Xrotation Yrotation Zrotation
									JOINT Pinky2.L
									{
										OFFSET 0.023916 0.000601 0.001911
										CHANNELS 3 Xrotation Yrotation Zrotation
										JOINT Pinky3.L
										{
											OFFSET 0.016941 0.000426 0.001353
											CHANNELS 3 Xrotation Yrotation Zrotation
											End Site
											{
												OFFSET 0.013951 0.000350 0.001115
											}
										}
									}
								}
							}
						}
					}
				}
				JOINT Clavicle.R
				{
					OFFSET -0.041073 0.014349 0.083200
					CHANNELS 3 Xrotation Yrotation Zrotation
					JOINT UpperArm.R
					{
						OFFSET -0.091412 0.009600 0.057333
						CHANNELS 3 Xrotation Yrotation Zrotation
						JOINT ForeArm.R
						{
							OFFSET -0.280246 0.022518 -0.042983
							CHANNELS 3 Xrotation Yrotation Zrotation
							JOINT Hand.R
							{
								OFFSET -0.259682 0.019112 -0.003483
								CHANNELS 3 Xrotation Yrotation Zrotation
								JOINT Thumb1.R
								{
									OFFSET -0.154666 0.008807 -0.001605
									CHANNELS 3 Xrotation Yrotation Zrotation
									JOINT Thumb2.R
									{
										OFFSET -0.029916 0.002202 -0.000401
										CHANNELS 3 Xrotation Yrotation Zrotation
										End Site
										{
											OFFSET -0.024930 0.001835 -0.000334
										}
									}
								}
								JOINT Index1.R
								{
									OFFSET -0.137666 0.008807 -0.001605
									CHANNELS 3 Xrotation Yrotation Zrotation
									JOINT Index2.R
									{
										OFFSET -0.029916 0.002202 -0.000401
										CHANNELS 3 Xrotation Yrotation Zrotation
										JOINT Index3.R
										{
											OFFSET -0.021939 0.001615 -0.000294
											CHANNELS 3 Xrotation Yrotation Zrotation
											End Site
											{
												OFFSET -0.017950 0.001321 -0.000241
											}
										}
									}
								}
								JOINT Middle1.R
								{
									OFFSET -0.119666 0.008807 -0.001605
									CHANNELS 3 Xrotation Yrotation Zrotation
									JOINT Middle2.R
									{
										OFFSET -0.030914 0.002275 -0.000415
										CHANNELS 3 Xrotation Yrotation Zrotation
										JOINT Middle3.R
										{
											OFFSET -0.021939 0.001615 -0.000294
											CHANNELS 3 Xrotation Yrotation Zrotation
											End Site
											{
												OFFSET -0.017950 0.001321 -0.000241
											}
										}
									}
								}
								JOINT Ring1.R
								{
									OFFSET -0.101666 0.008807 -0.001605
									CHANNELS 3 Xrotation Yrotation Zrotation
									JOINT Ring2.R
									{
										OFFSET -0.028919 0.002128 -0.000388
										CHANNELS 3 Xrotation Yrotation Zrotation
										JOINT Ring3.R
										{
											OFFSET -0.019944 0.001468 -0.000268
											CHANNELS 3 Xrotation Yrotation Zrotation
											End Site
											{
												OFFSET -0.016953 0.001248 -0.000227
											}
										}
									}
								}
								JOINT Pinky1.R
								{
									OFFSET -0.085666 0.008807 -0.001605
									CHANNELS 3 Xrotation Yrotation Zrotation
									JOINT Pinky2.R
									{
										OFFSET -0.023933 0.001761 -0.000321
										CHANNELS 3 Xrotation Yrotation Zrotation
										JOINT Pinky3.R
										{
											OFFSET -0.016953 0.001248 -0.000227
											CHANNELS 3 Xrotation Yrotation Zrotation
											End Site
											{
												OFFSET -0.013961 0.001027 -0.000187
											}
										}
									}
								}
							}
						}
					}
				}
			}
		}
	}
}
MOTION
Frames: 7
Frame Time: 0.03333333
-0.004232 -0.028355 1.142358 -3.786009 1.218564 4.349041 3.371383 -0.148628 0.135556 -0.199385 1.402241 -8.702295 -1.972232 2.659848 5.791916 3.574426 -3.051734 0.636159 1.609364 -2.181064 0.777115 2.588992 -1.025047 3.590924 -1.690387 -3.148242 -2.934528 1.093823 -2.689638 -1.430745 1.472173 1.128806 2.740296 9.612106 -5.856982 -3.429269 -8.892258 2.921824 0.385270 14.095198 1.181215 3.321260 15.474495 -0.472934 5.212158 7.155598 22.372381 2.401210 17.514077 48.846084 -21.431750 14.286073 -5.130001 -20.759369 6.676605 2.882676 -6.899544 0.000000 0.000000 0.000000 0.000000 0.000000 0.000000 0.000000 0.000000 0.000000 0.000000 0.000000 0.000000 0.000000 0.000000 0.000000 0.000000 0.000000 0.000000 0.000000 0.000000 0.000000 0.000000 0.000000 0.000000 0.000000 0.000000 0.000000 0.000000 0.000000 0.000000 0.000000 0.000000 0.000000 0.000000 0.000000 0.000000 0.000000 0.000000 0.000000 0.000000 0.000000 0.000000 4.426659 -15.879087 0.406021 30.053309 -52.146311 26.626570 8.588194 5.966693 26.788484 -1.196196 -7.486963 2.582727 0.000000 0.000000 0.000000 0.000000 0.000000 0.000000 0.000000 0.000000 0.000000 0.000000 0.000000 0.000000 0.000000 0.000000 0.000000 0.000000 0.000000 0.000000 0.000000 0.000000 0.000000 0.000000 0.000000 0.000000 0.000000 0.000000 0.000000 0.000000 0.000000 0.000000 0.000000 0.000000 0.000000 0.000000 0.000000 0.000000 0.000000 0.000000 0.000000 0.000000 0.000000 0.000000
-0.004291 -0.028117 1.142316 -3.781725 1.247757 4.397170 3.539259 -0.150094 0.172753 -0.514549 1.323078 -8.627941 -1.918270 2.723663 5.740346 3.619046 -3.039690 0.653522 1.672340 -2.244488 0.783596 2.490952 -0.997514 3.530978 -1.676168 -3.108529 -2.936161 1.108301 -2.673634 -1.444909 1.473767 1.175406 2.738183 9.728690 -5.912061 -3.453447 -8.931970 2.906981 0.371005 14.101139 1.212546 3.349903 15.487470 -0.440997 5.251338 7.228540 22.384945 2.375582 17.519334 48.818279 -21.504236 14.136250 -5.126859 -20.803042 6.539150 2.984714 -6.942657 0.000000 0.000000 0.000000 0.000000 0.000000 0.000000 0.000000 0.000000 0.000000 0.000000 0.000000 0.000000 0.000000 0.000000 0.000000 0.000000 0.000000 0.000000 0.000000 0.000000 0.000000 0.000000 0.000000 0.000000 0.000000 0.000000 0.000000 0.000000 0.000000 0.000000 0.000000 0.000000 0.000000 0.000000 0.000000 0.000000 0.000000 0.000000 0.000000 0.000000 0.000000 0.000000 4.452846 -15.894213 0.444420 30.042991 -52.160628 26.655877 8.331983 5.944670 26.782365 -1.304334 -7.516362 2.661480 0.000000 0.000000 0.000000 0.000000 0.000000 0.000000 0.000000 0.000000 0.000000 0.000000 0.000000 0.000000 0.000000 0.000000 0.000000 0.000000 0.000000 0.000000 0.000000 0.000000 0.000000 0.000000 0.000000 0.000000 0.000000 0.000000 0.000000 0.000000 0.000000 0.000000 0.000000 0.000000 0.000000 0.000000 0.000000 0.000000 0.000000 0.000000 0.000000 0.000000 0.000000 0.000000
-0.003778 -0.027765 1.142240 -3.780788 1.246090 4.352376 3.621117 -0.168503 0.186782 -0.617989 1.299388 -8.564154 -1.932232 2.741578 5.709824 3.629084 -3.081844 0.668229 1.697247 -2.292651 0.820283 2.482513 -0.972681 3.527915 -1.725403 -3.026355 -2.935076 1.121140 -2.713109 -1.465918 1.501730 1.186222 2.729148 9.702220 -5.884392 -3.457173 -8.769479 2.895920 0.345857 13.992665 1.196273 3.421870 15.518825 -0.388857 5.237370 7.173877 22.359464 2.384325 17.450217 48.824648 -21.444772 14.069821 -5.164130 -20.805621 6.580493 2.946267 -6.918991 0.000000 0.000000 0.000000 0.000000 0.000000 0.000000 0.000000 0.000000 0.000000 0.000000 0.000000 0.000000 0.000000 0.000000 0.000000 0.000000 0.000000 0.000000 0.000000 0.000000 0.000000 0.000000 0.000000 0.000000 0.000000 0.000000 0.000000 0.000000 0.000000 0.000000 0.000000 0.000000 0.000000 0.000000 0.000000 0.000000 0.000000 0.000000 0.000000 0.000000 0.000000 0.000000 4.355763 -15.923766 0.487941 30.077679 -52.198612 26.685908 8.220328 5.925549 26.812957 -1.279648 -7.525302 2.650171 0.000000 0.000000 0.000000 0.000000 0.000000 0.000000 0.000000 0.000000 0.000000 0.000000 0.000000 0.000000 0.000000 0.000000 0.000000 0.000000 0.000000 0.000000 0.000000 0.000000 0.000000 0.000000 0.000000 0.000000 0.000000 0.000000 0.000000 0.000000 0.000000 0.000000 0.000000 0.000000 0.000000 0.000000 0.000000 0.000000 0.000000 0.000000 0.000000 0.000000 0.000000 0.000000
-0.003209 -0.027919 1.142137 -3.795753 1.245711 4.384751 3.673951 -0.206995 0.197805 -0.700170 1.289925 -8.525965 -1.934690 2.743599 5.646964 3.641728 -3.052772 0.678323 1.744760 -2.350793 0.881686 2.422531 -0.955962 3.509176 -1.759818 -2.937148 -3.006719 1.128539 -2.708149 -1.479453 1.526077 1.224972 2.725526 9.760711 -5.887995 -3.459707 -8.716751 2.875191 0.338812 13.884870 1.179963 3.452992 15.508007 -0.425820 5.258622 7.141099 22.355955 2.348408 17.416281 48.769623 -21.424788 14.006229 -5.195990 -20.883407 6.641967 2.903213 -6.960813 0.000000 0.000000 0.000000 0.000000 0.000000 0.000000 0.000000 0.000000 0.000000 0.000000 0.000000 0.000000 0.000000 0.000000 0.000000 0.000000 0.000000 0.000000 0.000000 0.000000 0.000000 0.000000 0.000000 0.000000 0.000000 0.000000 0.000000 0.000000 0.000000 0.000000 0.000000 0.000000 0.000000 0.000000 0.000000 0.000000 0.000000 0.000000 0.000000 0.000000 0.000000 0.000000 4.319276 -15.984473 0.534864 30.057876 -52.172637 26.664711 8.174596 5.904484 26.894968 -1.265965 -7.525934 2.704812 0.000000 0.000000 0.000000 0.000000 0.000000 0.000000 0.000000 0.000000 0.000000 0.000000 0.000000 0.000000 0.000000 0.000000 0.000000 0.000000 0.000000 0.000000 0.000000 0.000000 0.000000 0.000000 0.000000 0.000000 0.000000 0.000000 0.000000 0.000000 0.000000 0.000000 0.000000 0.000000 0.000000 0.000000 0.000000 0.000000 0.000000 0.000000 0.000000 0.000000 0.000000 0.000000
-0.002778 -0.027746 1.141991 -3.782292 1.248389 4.391251 3.647212 -0.237874 0.155256 -0.665543 1.287035 -8.556733 -1.987201 2.695772 5.672678 3.621662 -3.088615 0.680061 1.738264 -2.400233 0.930937 2.419708 -0.944316 3.522498 -1.820880 -2.838209 -3.090329 1.127522 -2.756341 -1.490042 1.546617 1.202896 2.711617 9.663188 -5.836752 -3.461605 -8.481915 2.861222 0.315727 13.693407 1.138000 3.459528 15.536302 -0.407293 5.227423 7.015445 22.346724 2.349785 17.388761 48.759862 -21.379132 13.944805 -5.236282 -20.911739 6.646161 2.799185 -6.959427 0.000000 0.000000 0.000000 0.000000 0.000000 0.000000 0.000000 0.000000 0.000000 0.000000 0.000000 0.000000 0.000000 0.000000 0.000000 0.000000 0.000000 0.000000 0.000000 0.000000 0.000000 0.000000 0.000000 0.000000 0.000000 0.000000 0.000000 0.000000 0.000000 0.000000 0.000000 0.000000 0.000000 0.000000 0.000000 0.000000 0.000000 0.000000 0.000000 0.000000 0.000000 0.000000 4.186053 -16.020566 0.575514 30.089872 -52.150208 26.641920 8.190731 5.866508 26.973342 -1.185225 -7.432779 2.733604 0.000000 0.000000 0.000000 0.000000 0.000000 0.000000 0.000000 0.000000 0.000000 0.000000 0.000000 0.000000 0.000000 0.000000 0.000000 0.000000 0.000000 0.000000 0.000000 0.000000 0.000000 0.000000 0.000000 0.000000 0.000000 0.000000 0.000000 0.000000 0.000000 0.000000 0.000000 0.000000 0.000000 0.000000 0.000000 0.000000 0.000000 0.000000 0.000000 0.000000 0.000000 0.000000
-0.002529 -0.027632 1.141842 -3.785008 1.253279 4.414573 3.658679 -0.261215 0.136842 -0.664677 1.280069 -8.594714 -2.059552 2.675784 5.695518 3.609437 -3.140239 0.678353 1.730266 -2.435697 0.956724 2.464476 -0.942450 3.551895 -1.908452 -2.739014 -3.156253 1.124643 -2.794056 -1.493886 1.561916 1.181388 2.691529 9.624138 -5.809675 -3.464709 -8.335887 2.870353 0.309349 13.604466 1.131479 3.477683 15.499272 -0.391041 5.199219 6.939508 22.325524 2.344469 17.347069 48.760123 -21.345159 13.924110 -5.262915 -20.934671 6.635211 2.707159 -6.930319 0.000000 0.000000 0.000000 0.000000 0.000000 0.000000 0.000000 0.000000 0.000000 0.000000 0.000000 0.000000 0.000000 0.000000 0.000000 0.000000 0.000000 0.000000 0.000000 0.000000 0.000000 0.000000 0.000000 0.000000 0.000000 0.000000 0.000000 0.000000 0.000000 0.000000 0.000000 0.000000 0.000000 0.000000 0.000000 0.000000 0.000000 0.000000 0.000000 0.000000 0.000000 0.000000 4.111195 -16.043255 0.615312 30.090311 -52.136863 26.636943 8.185766 5.805264 26.984072 -1.181073 -7.384297 2.758510 0.000000 0.000000 0.000000 0.000000 0.000000 0.000000 0.000000 0.000000 0.000000 0.000000 0.000000 0.000000 0.000000 0.000000 0.000000 0.000000 0.000000 0.000000 0.000000 0.000000 0.000000 0.000000 0.000000 0.000000 0.000000 0.000000 0.000000 0.000000 0.000000 0.000000 0.000000 0.000000 0.000000 0.000000 0.000000 0.000000 0.000000 0.000000 0.000000 0.000000 0.000000 0.000000
-0.002083 -0.027475 1.141698 -3.806167 1.240797 4.431678 3.664727 -0.276913 0.118260 -0.589966 1.278208 -8.632501 -2.169669 2.658424 5.717668 3.594285 -3.201237 0.668594 1.705015 -2.452910 0.969205 2.603006 -0.953166 3.570542 -2.043811 -2.622689 -3.189420 1.119053 -2.838196 -1.498558 1.606480 1.151252 2.682645 9.577159 -5.788196 -3.478055 -8.226121 2.891620 0.307146 13.546122 1.106682 3.524091 15.456641 -0.355183 5.200553 6.891737 22.286897 2.340197 17.335412 48.755343 -21.349175 13.889271 -5.255094 -20.919547 6.618370 2.598223 -6.905459 0.000000 0.000000 0.000000 0.000000 0.000000 0.000000 0.000000 0.000000 0.000000 0.000000 0.000000 0.000000 0.000000 0.000000 0.000000 0.000000 0.000000 0.000000 0.000000 0.000000 0.000000 0.000000 0.000000 0.000000 0.000000 0.000000 0.000000 0.000000 0.000000 0.000000 0.000000 0.000000 0.000000 0.000000 0.000000 0.000000 0.000000 0.000000 0.000000 0.000000 0.000000 0.000000 4.058631 -16.045608 0.635238 30.127046 -52.158418 26.685415 8.113838 5.734584 26.962175 -1.229984 -7.354313 2.773872 0.000000 0.000000 0.000000 0.000000 0.000000 0.000000 0.000000 0.000000 0.000000 0.000000 0.000000 0.000000 0.000000 0.000000 0.000000 0.000000 0.000000 0.000000 0.000000 0.000000 0.000000 0.000000 0.000000 0.000000 0.000000 0.000000 0.000000 0.000000 0.000000 0.000000 0.000000 0.000000 0.000000 0.000000 0.000000 0.000000 0.000000 0.000000 0.000000 0.000000 0.000000 0.000000
